# xmcd
#
# Track frame offsets:
#	150
#	16107
#	34115
#	50257
#	66467
#	93060
#	109300
#	126212
#	143805
#	161007
#	178527
#	201442
#	219417
#	235252
#
# Disc length: 3371
#
# Revision: 1
# Processed by: cddbd v1.5.1PL0 Copyright (c) Steve Scherf et al.
# Submitted via: CD-Transfer v1.0
# Normalized: r0:DSETVAR2
#
DISCID=c20d290e
DTITLE=Various Artist - Maximum Dance Vol. 1997-04
DYEAR=1997
DGENRE=
TTITLE0=Charly Lownoise and Mental Theo - Party
TTITLE1=Max Deejay - Rhythm Is A Dancer
TTITLE2=Future Breeze - Keep The Fire Burnin'
TTITLE3=Down Low - Lovething
TTITLE4=Marusha - Ur Life
TTITLE5=General Base - On and On
TTITLE6=United Colours - Join The Way We Are
TTITLE7=Die Fantastischen Vier - Der Picknicker
TTITLE8=Energy 52 - Cafe Del Mar
TTITLE9=Sexman - I'm Not A Taxman
TTITLE10=G's Incorporated - Stairway To Heaven
TTITLE11=M.a.s. Projekt - Bass 4 Luv
TTITLE12=The Source Feat. Candi Staton - You Got The Love
TTITLE13=Captain Jack - Together and Forever
EXTD=
EXTT0=
EXTT1=
EXTT2=
EXTT3=
EXTT4=
EXTT5=
EXTT6=
EXTT7=
EXTT8=
EXTT9=
EXTT10=
EXTT11=
EXTT12=
EXTT13=
PLAYORDER=
